<svg xmlns="http://www.w3.org/2000/svg" width="900" height="268" viewBox="0 0 900 268">
  <rect width="900" height="268" fill="#ffffff" rx="6" ry="6" />
  <!-- title -->
  <text x="450" y="20" text-anchor="middle"
        font-family="-apple-system, BlinkMacSystemFont, &quot;Segoe UI&quot;, Helvetica, Arial, sans-serif" font-size="14" font-weight="600" fill="#24292e"
        >Performers — Record Growth</text>
  <!-- legend -->
  <circle cx="365" cy="31" r="4" fill="#3b82f6" />
  <text x="373" y="34" font-family="-apple-system, BlinkMacSystemFont, &quot;Segoe UI&quot;, Helvetica, Arial, sans-serif" font-size="11" fill="#586069">Total Records</text>
  <circle cx="455" cy="31" r="4" fill="#22c55e" />
  <text x="463" y="34" font-family="-apple-system, BlinkMacSystemFont, &quot;Segoe UI&quot;, Helvetica, Arial, sans-serif" font-size="11" fill="#586069">Added</text>
  <!-- grid lines -->
  <line x1="58" y1="52" x2="848" y2="52"
           stroke="#e1e4e8" stroke-width="1" stroke-dasharray="4,3" />
  <line x1="58" y1="145" x2="848" y2="145"
           stroke="#e1e4e8" stroke-width="1" stroke-dasharray="4,3" />
  <line x1="58" y1="236" x2="848" y2="236"
           stroke="#e1e4e8" stroke-width="1" stroke-dasharray="4,3" />
  <!-- bars (Added, right axis) -->
  <rect x="60" y="237" width="39" height="3"
          rx="1" fill="#22c55eb3" />
  <rect x="101" y="239" width="39" height="1"
          rx="1" fill="#22c55eb3" />
  <rect x="142" y="237" width="39" height="3"
          rx="1" fill="#22c55eb3" />
  <rect x="183" y="235" width="39" height="5"
          rx="1" fill="#22c55eb3" />
  <rect x="224" y="235" width="39" height="5"
          rx="1" fill="#22c55eb3" />
  <rect x="265" y="220" width="39" height="20"
          rx="1" fill="#22c55eb3" />
  <rect x="306" y="231" width="39" height="9"
          rx="1" fill="#22c55eb3" />
  <rect x="347" y="228" width="39" height="12"
          rx="1" fill="#22c55eb3" />
  <rect x="388" y="235" width="39" height="5"
          rx="1" fill="#22c55eb3" />
  <rect x="429" y="236" width="39" height="4"
          rx="1" fill="#22c55eb3" />
  <rect x="470" y="228" width="39" height="12"
          rx="1" fill="#22c55eb3" />
  <rect x="511" y="236" width="39" height="4"
          rx="1" fill="#22c55eb3" />
  <rect x="552" y="239" width="39" height="1"
          rx="1" fill="#22c55eb3" />
  <rect x="593" y="219" width="39" height="21"
          rx="1" fill="#22c55eb3" />
  <rect x="634" y="239" width="39" height="1"
          rx="1" fill="#22c55eb3" />
  <rect x="675" y="239" width="39" height="1"
          rx="1" fill="#22c55eb3" />
  <rect x="716" y="229" width="39" height="11"
          rx="1" fill="#22c55eb3" />
  <rect x="757" y="239" width="39" height="1"
          rx="1" fill="#22c55eb3" />
  <rect x="798" y="73" width="39" height="167"
          rx="1" fill="#22c55eb3" />
  <!-- line (Total, left axis) -->
  <polyline points="79,240 120,239 161,237 202,234 243,230 284,217 325,211 366,203 407,200 448,197 489,189 530,186 571,185 612,171 653,171 694,170 735,163 776,162 817,50" fill="none" stroke="#3b82f6" stroke-width="2" stroke-linejoin="round" stroke-linecap="round" />
  <!-- left y-axis labels (Total) -->
  <text x="52" y="56" text-anchor="end"
           font-family="-apple-system, BlinkMacSystemFont, &quot;Segoe UI&quot;, Helvetica, Arial, sans-serif" font-size="10" fill="#586069"
           >230</text>
  <text x="52" y="149" text-anchor="end"
           font-family="-apple-system, BlinkMacSystemFont, &quot;Segoe UI&quot;, Helvetica, Arial, sans-serif" font-size="10" fill="#586069"
           >122</text>
  <text x="52" y="240" text-anchor="end"
           font-family="-apple-system, BlinkMacSystemFont, &quot;Segoe UI&quot;, Helvetica, Arial, sans-serif" font-size="10" fill="#586069"
           >14</text>
  <!-- right y-axis labels (Added) -->
  <text x="854" y="56" text-anchor="start"
           font-family="-apple-system, BlinkMacSystemFont, &quot;Segoe UI&quot;, Helvetica, Arial, sans-serif" font-size="10" fill="#22c55e"
           >127</text>
  <text x="854" y="149" text-anchor="start"
           font-family="-apple-system, BlinkMacSystemFont, &quot;Segoe UI&quot;, Helvetica, Arial, sans-serif" font-size="10" fill="#22c55e"
           >64</text>
  <text x="854" y="240" text-anchor="start"
           font-family="-apple-system, BlinkMacSystemFont, &quot;Segoe UI&quot;, Helvetica, Arial, sans-serif" font-size="10" fill="#22c55e"
           >0</text>
  <!-- axes -->
  <line x1="58" y1="50" x2="58" y2="240"
        stroke="#e1e4e8" stroke-width="1" />
  <line x1="58" y1="240" x2="848" y2="240"
        stroke="#e1e4e8" stroke-width="1" />
  <line x1="848" y1="50" x2="848" y2="240"
           stroke="#e1e4e8" stroke-width="1" />
  <!-- x-axis labels -->
  <text x="79" y="256" text-anchor="middle"
           font-family="-apple-system, BlinkMacSystemFont, &quot;Segoe UI&quot;, Helvetica, Arial, sans-serif" font-size="10" fill="#586069"
           >Nov 16</text>
  <text x="325" y="256" text-anchor="middle"
           font-family="-apple-system, BlinkMacSystemFont, &quot;Segoe UI&quot;, Helvetica, Arial, sans-serif" font-size="10" fill="#586069"
           >Jan 4</text>
  <text x="571" y="256" text-anchor="middle"
           font-family="-apple-system, BlinkMacSystemFont, &quot;Segoe UI&quot;, Helvetica, Arial, sans-serif" font-size="10" fill="#586069"
           >Feb 22</text>
  <text x="817" y="256" text-anchor="middle"
           font-family="-apple-system, BlinkMacSystemFont, &quot;Segoe UI&quot;, Helvetica, Arial, sans-serif" font-size="10" fill="#586069"
           >Apr 5</text>
</svg>