<svg xmlns="http://www.w3.org/2000/svg" width="900" height="268" viewBox="0 0 900 268">
  <rect width="900" height="268" fill="#ffffff" rx="6" ry="6" />
  <!-- title -->
  <text x="450" y="20" text-anchor="middle"
        font-family="-apple-system, BlinkMacSystemFont, &quot;Segoe UI&quot;, Helvetica, Arial, sans-serif" font-size="14" font-weight="600" fill="#24292e"
        >Events — Record Growth</text>
  <!-- legend -->
  <circle cx="365" cy="31" r="4" fill="#3b82f6" />
  <text x="373" y="34" font-family="-apple-system, BlinkMacSystemFont, &quot;Segoe UI&quot;, Helvetica, Arial, sans-serif" font-size="11" fill="#586069">Total Records</text>
  <circle cx="455" cy="31" r="4" fill="#22c55e" />
  <text x="463" y="34" font-family="-apple-system, BlinkMacSystemFont, &quot;Segoe UI&quot;, Helvetica, Arial, sans-serif" font-size="11" fill="#586069">Added</text>
  <!-- grid lines -->
  <line x1="58" y1="52" x2="848" y2="52"
           stroke="#e1e4e8" stroke-width="1" stroke-dasharray="4,3" />
  <line x1="58" y1="145" x2="848" y2="145"
           stroke="#e1e4e8" stroke-width="1" stroke-dasharray="4,3" />
  <line x1="58" y1="236" x2="848" y2="236"
           stroke="#e1e4e8" stroke-width="1" stroke-dasharray="4,3" />
  <!-- bars (Added, right axis) -->
  <rect x="59" y="225" width="28" height="15"
          rx="1" fill="#22c55eb3" />
  <rect x="89" y="227" width="28" height="13"
          rx="1" fill="#22c55eb3" />
  <rect x="119" y="225" width="28" height="15"
          rx="1" fill="#22c55eb3" />
  <rect x="149" y="232" width="28" height="8"
          rx="1" fill="#22c55eb3" />
  <rect x="179" y="234" width="28" height="6"
          rx="1" fill="#22c55eb3" />
  <rect x="209" y="231" width="28" height="9"
          rx="1" fill="#22c55eb3" />
  <rect x="239" y="219" width="28" height="21"
          rx="1" fill="#22c55eb3" />
  <rect x="269" y="218" width="28" height="22"
          rx="1" fill="#22c55eb3" />
  <rect x="299" y="222" width="28" height="18"
          rx="1" fill="#22c55eb3" />
  <rect x="329" y="218" width="28" height="22"
          rx="1" fill="#22c55eb3" />
  <rect x="359" y="220" width="28" height="20"
          rx="1" fill="#22c55eb3" />
  <rect x="389" y="219" width="28" height="21"
          rx="1" fill="#22c55eb3" />
  <rect x="419" y="210" width="28" height="30"
          rx="1" fill="#22c55eb3" />
  <rect x="449" y="215" width="28" height="25"
          rx="1" fill="#22c55eb3" />
  <rect x="479" y="222" width="28" height="18"
          rx="1" fill="#22c55eb3" />
  <rect x="509" y="211" width="28" height="29"
          rx="1" fill="#22c55eb3" />
  <rect x="539" y="224" width="28" height="16"
          rx="1" fill="#22c55eb3" />
  <rect x="569" y="226" width="28" height="14"
          rx="1" fill="#22c55eb3" />
  <rect x="599" y="228" width="28" height="12"
          rx="1" fill="#22c55eb3" />
  <rect x="629" y="229" width="28" height="11"
          rx="1" fill="#22c55eb3" />
  <rect x="659" y="232" width="28" height="8"
          rx="1" fill="#22c55eb3" />
  <rect x="689" y="232" width="28" height="8"
          rx="1" fill="#22c55eb3" />
  <rect x="719" y="232" width="28" height="8"
          rx="1" fill="#22c55eb3" />
  <rect x="749" y="231" width="28" height="9"
          rx="1" fill="#22c55eb3" />
  <rect x="779" y="232" width="28" height="8"
          rx="1" fill="#22c55eb3" />
  <rect x="809" y="73" width="28" height="167"
          rx="1" fill="#22c55eb3" />
  <!-- line (Total, left axis) -->
  <polyline points="73,240 103,235 133,230 163,227 193,225 223,222 253,215 283,207 313,200 343,193 373,186 403,178 433,168 463,159 493,152 523,142 553,136 583,132 613,128 643,124 673,121 703,118 733,115 763,112 793,109 823,50" fill="none" stroke="#3b82f6" stroke-width="2" stroke-linejoin="round" stroke-linecap="round" />
  <!-- left y-axis labels (Total) -->
  <text x="52" y="56" text-anchor="end"
           font-family="-apple-system, BlinkMacSystemFont, &quot;Segoe UI&quot;, Helvetica, Arial, sans-serif" font-size="10" fill="#586069"
           >9k</text>
  <text x="52" y="149" text-anchor="end"
           font-family="-apple-system, BlinkMacSystemFont, &quot;Segoe UI&quot;, Helvetica, Arial, sans-serif" font-size="10" fill="#586069"
           >6k</text>
  <text x="52" y="240" text-anchor="end"
           font-family="-apple-system, BlinkMacSystemFont, &quot;Segoe UI&quot;, Helvetica, Arial, sans-serif" font-size="10" fill="#586069"
           >2k</text>
  <!-- right y-axis labels (Added) -->
  <text x="854" y="56" text-anchor="start"
           font-family="-apple-system, BlinkMacSystemFont, &quot;Segoe UI&quot;, Helvetica, Arial, sans-serif" font-size="10" fill="#22c55e"
           >2k</text>
  <text x="854" y="149" text-anchor="start"
           font-family="-apple-system, BlinkMacSystemFont, &quot;Segoe UI&quot;, Helvetica, Arial, sans-serif" font-size="10" fill="#22c55e"
           >987</text>
  <text x="854" y="240" text-anchor="start"
           font-family="-apple-system, BlinkMacSystemFont, &quot;Segoe UI&quot;, Helvetica, Arial, sans-serif" font-size="10" fill="#22c55e"
           >0</text>
  <!-- axes -->
  <line x1="58" y1="50" x2="58" y2="240"
        stroke="#e1e4e8" stroke-width="1" />
  <line x1="58" y1="240" x2="848" y2="240"
        stroke="#e1e4e8" stroke-width="1" />
  <line x1="848" y1="50" x2="848" y2="240"
           stroke="#e1e4e8" stroke-width="1" />
  <!-- x-axis labels -->
  <text x="73" y="256" text-anchor="middle"
           font-family="-apple-system, BlinkMacSystemFont, &quot;Segoe UI&quot;, Helvetica, Arial, sans-serif" font-size="10" fill="#586069"
           >Jan 11</text>
  <text x="313" y="256" text-anchor="middle"
           font-family="-apple-system, BlinkMacSystemFont, &quot;Segoe UI&quot;, Helvetica, Arial, sans-serif" font-size="10" fill="#586069"
           >Mar 8</text>
  <text x="553" y="256" text-anchor="middle"
           font-family="-apple-system, BlinkMacSystemFont, &quot;Segoe UI&quot;, Helvetica, Arial, sans-serif" font-size="10" fill="#586069"
           >May 3</text>
  <text x="793" y="256" text-anchor="middle"
           font-family="-apple-system, BlinkMacSystemFont, &quot;Segoe UI&quot;, Helvetica, Arial, sans-serif" font-size="10" fill="#586069"
           >Jun 28</text>
  <text x="823" y="256" text-anchor="middle"
           font-family="-apple-system, BlinkMacSystemFont, &quot;Segoe UI&quot;, Helvetica, Arial, sans-serif" font-size="10" fill="#586069"
           >Jul 5</text>
</svg>