<svg xmlns="http://www.w3.org/2000/svg" width="900" height="268" viewBox="0 0 900 268">
  <rect width="900" height="268" fill="#ffffff" rx="6" ry="6" />
  <!-- title -->
  <text x="450" y="20" text-anchor="middle"
        font-family="-apple-system, BlinkMacSystemFont, &quot;Segoe UI&quot;, Helvetica, Arial, sans-serif" font-size="14" font-weight="600" fill="#24292e"
        >Events — Record Growth</text>
  <!-- legend -->
  <circle cx="365" cy="31" r="4" fill="#3b82f6" />
  <text x="373" y="34" font-family="-apple-system, BlinkMacSystemFont, &quot;Segoe UI&quot;, Helvetica, Arial, sans-serif" font-size="11" fill="#586069">Total Records</text>
  <circle cx="455" cy="31" r="4" fill="#22c55e" />
  <text x="463" y="34" font-family="-apple-system, BlinkMacSystemFont, &quot;Segoe UI&quot;, Helvetica, Arial, sans-serif" font-size="11" fill="#586069">Added</text>
  <!-- grid lines -->
  <line x1="58" y1="52" x2="848" y2="52"
           stroke="#e1e4e8" stroke-width="1" stroke-dasharray="4,3" />
  <line x1="58" y1="145" x2="848" y2="145"
           stroke="#e1e4e8" stroke-width="1" stroke-dasharray="4,3" />
  <line x1="58" y1="236" x2="848" y2="236"
           stroke="#e1e4e8" stroke-width="1" stroke-dasharray="4,3" />
  <!-- bars (Added, right axis) -->
  <rect x="60" y="227" width="29" height="13"
          rx="1" fill="#22c55eb3" />
  <rect x="91" y="225" width="29" height="15"
          rx="1" fill="#22c55eb3" />
  <rect x="122" y="232" width="29" height="8"
          rx="1" fill="#22c55eb3" />
  <rect x="153" y="234" width="29" height="6"
          rx="1" fill="#22c55eb3" />
  <rect x="184" y="231" width="29" height="9"
          rx="1" fill="#22c55eb3" />
  <rect x="215" y="219" width="29" height="21"
          rx="1" fill="#22c55eb3" />
  <rect x="246" y="218" width="29" height="22"
          rx="1" fill="#22c55eb3" />
  <rect x="277" y="222" width="29" height="18"
          rx="1" fill="#22c55eb3" />
  <rect x="308" y="218" width="29" height="22"
          rx="1" fill="#22c55eb3" />
  <rect x="339" y="220" width="29" height="20"
          rx="1" fill="#22c55eb3" />
  <rect x="370" y="219" width="29" height="21"
          rx="1" fill="#22c55eb3" />
  <rect x="401" y="210" width="29" height="30"
          rx="1" fill="#22c55eb3" />
  <rect x="432" y="215" width="29" height="25"
          rx="1" fill="#22c55eb3" />
  <rect x="463" y="222" width="29" height="18"
          rx="1" fill="#22c55eb3" />
  <rect x="494" y="211" width="29" height="29"
          rx="1" fill="#22c55eb3" />
  <rect x="525" y="224" width="29" height="16"
          rx="1" fill="#22c55eb3" />
  <rect x="556" y="226" width="29" height="14"
          rx="1" fill="#22c55eb3" />
  <rect x="587" y="228" width="29" height="12"
          rx="1" fill="#22c55eb3" />
  <rect x="618" y="229" width="29" height="11"
          rx="1" fill="#22c55eb3" />
  <rect x="649" y="232" width="29" height="8"
          rx="1" fill="#22c55eb3" />
  <rect x="680" y="232" width="29" height="8"
          rx="1" fill="#22c55eb3" />
  <rect x="711" y="232" width="29" height="8"
          rx="1" fill="#22c55eb3" />
  <rect x="742" y="231" width="29" height="9"
          rx="1" fill="#22c55eb3" />
  <rect x="773" y="232" width="29" height="8"
          rx="1" fill="#22c55eb3" />
  <rect x="804" y="73" width="29" height="167"
          rx="1" fill="#22c55eb3" />
  <!-- line (Total, left axis) -->
  <polyline points="74,240 105,235 136,231 167,229 198,226 229,219 260,211 291,204 322,196 353,189 384,182 415,170 446,162 477,155 508,145 539,139 570,134 601,130 632,126 663,123 694,120 725,117 756,114 787,111 818,50" fill="none" stroke="#3b82f6" stroke-width="2" stroke-linejoin="round" stroke-linecap="round" />
  <!-- left y-axis labels (Total) -->
  <text x="52" y="56" text-anchor="end"
           font-family="-apple-system, BlinkMacSystemFont, &quot;Segoe UI&quot;, Helvetica, Arial, sans-serif" font-size="10" fill="#586069"
           >9k</text>
  <text x="52" y="149" text-anchor="end"
           font-family="-apple-system, BlinkMacSystemFont, &quot;Segoe UI&quot;, Helvetica, Arial, sans-serif" font-size="10" fill="#586069"
           >6k</text>
  <text x="52" y="240" text-anchor="end"
           font-family="-apple-system, BlinkMacSystemFont, &quot;Segoe UI&quot;, Helvetica, Arial, sans-serif" font-size="10" fill="#586069"
           >3k</text>
  <!-- right y-axis labels (Added) -->
  <text x="854" y="56" text-anchor="start"
           font-family="-apple-system, BlinkMacSystemFont, &quot;Segoe UI&quot;, Helvetica, Arial, sans-serif" font-size="10" fill="#22c55e"
           >2k</text>
  <text x="854" y="149" text-anchor="start"
           font-family="-apple-system, BlinkMacSystemFont, &quot;Segoe UI&quot;, Helvetica, Arial, sans-serif" font-size="10" fill="#22c55e"
           >987</text>
  <text x="854" y="240" text-anchor="start"
           font-family="-apple-system, BlinkMacSystemFont, &quot;Segoe UI&quot;, Helvetica, Arial, sans-serif" font-size="10" fill="#22c55e"
           >0</text>
  <!-- axes -->
  <line x1="58" y1="50" x2="58" y2="240"
        stroke="#e1e4e8" stroke-width="1" />
  <line x1="58" y1="240" x2="848" y2="240"
        stroke="#e1e4e8" stroke-width="1" />
  <line x1="848" y1="50" x2="848" y2="240"
           stroke="#e1e4e8" stroke-width="1" />
  <!-- x-axis labels -->
  <text x="74" y="256" text-anchor="middle"
           font-family="-apple-system, BlinkMacSystemFont, &quot;Segoe UI&quot;, Helvetica, Arial, sans-serif" font-size="10" fill="#586069"
           >Jan 18</text>
  <text x="322" y="256" text-anchor="middle"
           font-family="-apple-system, BlinkMacSystemFont, &quot;Segoe UI&quot;, Helvetica, Arial, sans-serif" font-size="10" fill="#586069"
           >Mar 15</text>
  <text x="570" y="256" text-anchor="middle"
           font-family="-apple-system, BlinkMacSystemFont, &quot;Segoe UI&quot;, Helvetica, Arial, sans-serif" font-size="10" fill="#586069"
           >May 10</text>
  <text x="818" y="256" text-anchor="middle"
           font-family="-apple-system, BlinkMacSystemFont, &quot;Segoe UI&quot;, Helvetica, Arial, sans-serif" font-size="10" fill="#586069"
           >Jul 5</text>
</svg>