<svg xmlns="http://www.w3.org/2000/svg" width="900" height="268" viewBox="0 0 900 268">
  <rect width="900" height="268" fill="#ffffff" rx="6" ry="6" />
  <!-- title -->
  <text x="450" y="20" text-anchor="middle"
        font-family="-apple-system, BlinkMacSystemFont, &quot;Segoe UI&quot;, Helvetica, Arial, sans-serif" font-size="14" font-weight="600" fill="#24292e"
        >Events — Record Growth</text>
  <!-- legend -->
  <circle cx="365" cy="31" r="4" fill="#3b82f6" />
  <text x="373" y="34" font-family="-apple-system, BlinkMacSystemFont, &quot;Segoe UI&quot;, Helvetica, Arial, sans-serif" font-size="11" fill="#586069">Total Records</text>
  <circle cx="455" cy="31" r="4" fill="#22c55e" />
  <text x="463" y="34" font-family="-apple-system, BlinkMacSystemFont, &quot;Segoe UI&quot;, Helvetica, Arial, sans-serif" font-size="11" fill="#586069">Added</text>
  <!-- grid lines -->
  <line x1="58" y1="52" x2="848" y2="52"
           stroke="#e1e4e8" stroke-width="1" stroke-dasharray="4,3" />
  <line x1="58" y1="145" x2="848" y2="145"
           stroke="#e1e4e8" stroke-width="1" stroke-dasharray="4,3" />
  <line x1="58" y1="236" x2="848" y2="236"
           stroke="#e1e4e8" stroke-width="1" stroke-dasharray="4,3" />
  <!-- bars (Added, right axis) -->
  <rect x="59" y="231" width="30" height="9"
          rx="1" fill="#22c55eb3" />
  <rect x="91" y="231" width="30" height="9"
          rx="1" fill="#22c55eb3" />
  <rect x="123" y="232" width="30" height="8"
          rx="1" fill="#22c55eb3" />
  <rect x="155" y="230" width="30" height="10"
          rx="1" fill="#22c55eb3" />
  <rect x="187" y="231" width="30" height="9"
          rx="1" fill="#22c55eb3" />
  <rect x="219" y="231" width="30" height="9"
          rx="1" fill="#22c55eb3" />
  <rect x="251" y="233" width="30" height="7"
          rx="1" fill="#22c55eb3" />
  <rect x="283" y="233" width="30" height="7"
          rx="1" fill="#22c55eb3" />
  <rect x="315" y="232" width="30" height="8"
          rx="1" fill="#22c55eb3" />
  <rect x="347" y="231" width="30" height="9"
          rx="1" fill="#22c55eb3" />
  <rect x="379" y="231" width="30" height="9"
          rx="1" fill="#22c55eb3" />
  <rect x="411" y="231" width="30" height="9"
          rx="1" fill="#22c55eb3" />
  <rect x="443" y="232" width="30" height="8"
          rx="1" fill="#22c55eb3" />
  <rect x="475" y="231" width="30" height="9"
          rx="1" fill="#22c55eb3" />
  <rect x="507" y="235" width="30" height="5"
          rx="1" fill="#22c55eb3" />
  <rect x="539" y="237" width="30" height="3"
          rx="1" fill="#22c55eb3" />
  <rect x="571" y="235" width="30" height="5"
          rx="1" fill="#22c55eb3" />
  <rect x="603" y="228" width="30" height="12"
          rx="1" fill="#22c55eb3" />
  <rect x="635" y="227" width="30" height="13"
          rx="1" fill="#22c55eb3" />
  <rect x="667" y="229" width="30" height="11"
          rx="1" fill="#22c55eb3" />
  <rect x="699" y="227" width="30" height="13"
          rx="1" fill="#22c55eb3" />
  <rect x="731" y="228" width="30" height="12"
          rx="1" fill="#22c55eb3" />
  <rect x="763" y="228" width="30" height="12"
          rx="1" fill="#22c55eb3" />
  <rect x="795" y="73" width="30" height="167"
          rx="1" fill="#22c55eb3" />
  <!-- line (Total, left axis) -->
  <polyline points="74,240 106,235 138,231 170,226 202,222 234,217 266,213 298,210 330,206 362,201 394,197 426,192 458,188 490,183 522,180 554,179 586,176 618,170 650,163 682,157 714,150 746,144 778,138 810,50" fill="none" stroke="#3b82f6" stroke-width="2" stroke-linejoin="round" stroke-linecap="round" />
  <!-- left y-axis labels (Total) -->
  <text x="52" y="56" text-anchor="end"
           font-family="-apple-system, BlinkMacSystemFont, &quot;Segoe UI&quot;, Helvetica, Arial, sans-serif" font-size="10" fill="#586069"
           >8k</text>
  <text x="52" y="149" text-anchor="end"
           font-family="-apple-system, BlinkMacSystemFont, &quot;Segoe UI&quot;, Helvetica, Arial, sans-serif" font-size="10" fill="#586069"
           >4k</text>
  <text x="52" y="240" text-anchor="end"
           font-family="-apple-system, BlinkMacSystemFont, &quot;Segoe UI&quot;, Helvetica, Arial, sans-serif" font-size="10" fill="#586069"
           >645</text>
  <!-- right y-axis labels (Added) -->
  <text x="854" y="56" text-anchor="start"
           font-family="-apple-system, BlinkMacSystemFont, &quot;Segoe UI&quot;, Helvetica, Arial, sans-serif" font-size="10" fill="#22c55e"
           >3k</text>
  <text x="854" y="149" text-anchor="start"
           font-family="-apple-system, BlinkMacSystemFont, &quot;Segoe UI&quot;, Helvetica, Arial, sans-serif" font-size="10" fill="#22c55e"
           >2k</text>
  <text x="854" y="240" text-anchor="start"
           font-family="-apple-system, BlinkMacSystemFont, &quot;Segoe UI&quot;, Helvetica, Arial, sans-serif" font-size="10" fill="#22c55e"
           >0</text>
  <!-- axes -->
  <line x1="58" y1="50" x2="58" y2="240"
        stroke="#e1e4e8" stroke-width="1" />
  <line x1="58" y1="240" x2="848" y2="240"
        stroke="#e1e4e8" stroke-width="1" />
  <line x1="848" y1="50" x2="848" y2="240"
           stroke="#e1e4e8" stroke-width="1" />
  <!-- x-axis labels -->
  <text x="74" y="256" text-anchor="middle"
           font-family="-apple-system, BlinkMacSystemFont, &quot;Segoe UI&quot;, Helvetica, Arial, sans-serif" font-size="10" fill="#586069"
           >Oct 26</text>
  <text x="298" y="256" text-anchor="middle"
           font-family="-apple-system, BlinkMacSystemFont, &quot;Segoe UI&quot;, Helvetica, Arial, sans-serif" font-size="10" fill="#586069"
           >Dec 14</text>
  <text x="522" y="256" text-anchor="middle"
           font-family="-apple-system, BlinkMacSystemFont, &quot;Segoe UI&quot;, Helvetica, Arial, sans-serif" font-size="10" fill="#586069"
           >Feb 1</text>
  <text x="746" y="256" text-anchor="middle"
           font-family="-apple-system, BlinkMacSystemFont, &quot;Segoe UI&quot;, Helvetica, Arial, sans-serif" font-size="10" fill="#586069"
           >Mar 22</text>
  <text x="810" y="256" text-anchor="middle"
           font-family="-apple-system, BlinkMacSystemFont, &quot;Segoe UI&quot;, Helvetica, Arial, sans-serif" font-size="10" fill="#586069"
           >Apr 5</text>
</svg>