<svg xmlns="http://www.w3.org/2000/svg" width="900" height="268" viewBox="0 0 900 268">
  <rect width="900" height="268" fill="#ffffff" rx="6" ry="6" />
  <!-- title -->
  <text x="450" y="20" text-anchor="middle"
        font-family="-apple-system, BlinkMacSystemFont, &quot;Segoe UI&quot;, Helvetica, Arial, sans-serif" font-size="14" font-weight="600" fill="#24292e"
        >Events — Record Growth</text>
  <!-- legend -->
  <circle cx="365" cy="31" r="4" fill="#3b82f6" />
  <text x="373" y="34" font-family="-apple-system, BlinkMacSystemFont, &quot;Segoe UI&quot;, Helvetica, Arial, sans-serif" font-size="11" fill="#586069">Total Records</text>
  <circle cx="455" cy="31" r="4" fill="#22c55e" />
  <text x="463" y="34" font-family="-apple-system, BlinkMacSystemFont, &quot;Segoe UI&quot;, Helvetica, Arial, sans-serif" font-size="11" fill="#586069">Added</text>
  <!-- grid lines -->
  <line x1="58" y1="52" x2="848" y2="52"
           stroke="#e1e4e8" stroke-width="1" stroke-dasharray="4,3" />
  <line x1="58" y1="145" x2="848" y2="145"
           stroke="#e1e4e8" stroke-width="1" stroke-dasharray="4,3" />
  <line x1="58" y1="236" x2="848" y2="236"
           stroke="#e1e4e8" stroke-width="1" stroke-dasharray="4,3" />
  <!-- bars (Added, right axis) -->
  <rect x="59" y="228" width="28" height="12"
          rx="1" fill="#22c55eb3" />
  <rect x="89" y="232" width="28" height="8"
          rx="1" fill="#22c55eb3" />
  <rect x="119" y="230" width="28" height="10"
          rx="1" fill="#22c55eb3" />
  <rect x="149" y="231" width="28" height="9"
          rx="1" fill="#22c55eb3" />
  <rect x="179" y="232" width="28" height="8"
          rx="1" fill="#22c55eb3" />
  <rect x="209" y="230" width="28" height="10"
          rx="1" fill="#22c55eb3" />
  <rect x="239" y="231" width="28" height="9"
          rx="1" fill="#22c55eb3" />
  <rect x="269" y="231" width="28" height="9"
          rx="1" fill="#22c55eb3" />
  <rect x="299" y="233" width="28" height="7"
          rx="1" fill="#22c55eb3" />
  <rect x="329" y="233" width="28" height="7"
          rx="1" fill="#22c55eb3" />
  <rect x="359" y="232" width="28" height="8"
          rx="1" fill="#22c55eb3" />
  <rect x="389" y="231" width="28" height="9"
          rx="1" fill="#22c55eb3" />
  <rect x="419" y="231" width="28" height="9"
          rx="1" fill="#22c55eb3" />
  <rect x="449" y="231" width="28" height="9"
          rx="1" fill="#22c55eb3" />
  <rect x="479" y="232" width="28" height="8"
          rx="1" fill="#22c55eb3" />
  <rect x="509" y="231" width="28" height="9"
          rx="1" fill="#22c55eb3" />
  <rect x="539" y="235" width="28" height="5"
          rx="1" fill="#22c55eb3" />
  <rect x="569" y="237" width="28" height="3"
          rx="1" fill="#22c55eb3" />
  <rect x="599" y="235" width="28" height="5"
          rx="1" fill="#22c55eb3" />
  <rect x="629" y="227" width="28" height="13"
          rx="1" fill="#22c55eb3" />
  <rect x="659" y="227" width="28" height="13"
          rx="1" fill="#22c55eb3" />
  <rect x="689" y="229" width="28" height="11"
          rx="1" fill="#22c55eb3" />
  <rect x="719" y="227" width="28" height="13"
          rx="1" fill="#22c55eb3" />
  <rect x="749" y="228" width="28" height="12"
          rx="1" fill="#22c55eb3" />
  <rect x="779" y="227" width="28" height="13"
          rx="1" fill="#22c55eb3" />
  <rect x="809" y="73" width="28" height="167"
          rx="1" fill="#22c55eb3" />
  <!-- line (Total, left axis) -->
  <polyline points="73,240 103,236 133,231 163,227 193,223 223,218 253,213 283,209 313,205 343,202 373,198 403,194 433,189 463,185 493,181 523,176 553,174 583,172 613,170 643,163 673,157 703,151 733,145 763,139 793,133 823,50" fill="none" stroke="#3b82f6" stroke-width="2" stroke-linejoin="round" stroke-linecap="round" />
  <!-- left y-axis labels (Total) -->
  <text x="52" y="56" text-anchor="end"
           font-family="-apple-system, BlinkMacSystemFont, &quot;Segoe UI&quot;, Helvetica, Arial, sans-serif" font-size="10" fill="#586069"
           >8k</text>
  <text x="52" y="149" text-anchor="end"
           font-family="-apple-system, BlinkMacSystemFont, &quot;Segoe UI&quot;, Helvetica, Arial, sans-serif" font-size="10" fill="#586069"
           >4k</text>
  <text x="52" y="240" text-anchor="end"
           font-family="-apple-system, BlinkMacSystemFont, &quot;Segoe UI&quot;, Helvetica, Arial, sans-serif" font-size="10" fill="#586069"
           >291</text>
  <!-- right y-axis labels (Added) -->
  <text x="854" y="56" text-anchor="start"
           font-family="-apple-system, BlinkMacSystemFont, &quot;Segoe UI&quot;, Helvetica, Arial, sans-serif" font-size="10" fill="#22c55e"
           >3k</text>
  <text x="854" y="149" text-anchor="start"
           font-family="-apple-system, BlinkMacSystemFont, &quot;Segoe UI&quot;, Helvetica, Arial, sans-serif" font-size="10" fill="#22c55e"
           >2k</text>
  <text x="854" y="240" text-anchor="start"
           font-family="-apple-system, BlinkMacSystemFont, &quot;Segoe UI&quot;, Helvetica, Arial, sans-serif" font-size="10" fill="#22c55e"
           >0</text>
  <!-- axes -->
  <line x1="58" y1="50" x2="58" y2="240"
        stroke="#e1e4e8" stroke-width="1" />
  <line x1="58" y1="240" x2="848" y2="240"
        stroke="#e1e4e8" stroke-width="1" />
  <line x1="848" y1="50" x2="848" y2="240"
           stroke="#e1e4e8" stroke-width="1" />
  <!-- x-axis labels -->
  <text x="73" y="256" text-anchor="middle"
           font-family="-apple-system, BlinkMacSystemFont, &quot;Segoe UI&quot;, Helvetica, Arial, sans-serif" font-size="10" fill="#586069"
           >Oct 12</text>
  <text x="313" y="256" text-anchor="middle"
           font-family="-apple-system, BlinkMacSystemFont, &quot;Segoe UI&quot;, Helvetica, Arial, sans-serif" font-size="10" fill="#586069"
           >Dec 7</text>
  <text x="553" y="256" text-anchor="middle"
           font-family="-apple-system, BlinkMacSystemFont, &quot;Segoe UI&quot;, Helvetica, Arial, sans-serif" font-size="10" fill="#586069"
           >Feb 1</text>
  <text x="793" y="256" text-anchor="middle"
           font-family="-apple-system, BlinkMacSystemFont, &quot;Segoe UI&quot;, Helvetica, Arial, sans-serif" font-size="10" fill="#586069"
           >Mar 29</text>
  <text x="823" y="256" text-anchor="middle"
           font-family="-apple-system, BlinkMacSystemFont, &quot;Segoe UI&quot;, Helvetica, Arial, sans-serif" font-size="10" fill="#586069"
           >Apr 5</text>
</svg>